<svg xmlns="https://www.w3.org/2000/svg" version="1.1" xmlns:xlink="https://www.w3.org/1999/xlink" xmlns:svgjs="https://svgjs.com/svgjs" width="100%" height="100%" viewBox="0 0 1000 600"><rect width="1000" height="600" x="0" y="0" fill="#ffffff"/><g><circle r="166.66666666666666" cx="286.2289683024088" cy="308.4512243509789" fill="#6acbd0" transform="matrix(1.0454797295365719,0,0,1.0454797295365719,0,-22.479512031472694)"/><path d="M299.8578470020052 298.9752957536487Q318.6119660953227 300.39256661658834 330.1149319363909 311.4340954325134Q341.65085756496933 322.44266446092826 341.65085756496933 338.8236788535096L341.65085756496933 338.8236788535096Q341.65085756496933 351.41431768241523 335.45441751304725 361.5988920230744Q329.2909372486354 371.81642615124395 318.5130867327921 377.61734875304336Q307.7022764294386 383.451231142353 294.41948206281825 383.451231142353L294.41948206281825 383.451231142353Q286.57505263538496 383.451231142353 277.31335234501194 382.72611581712806L277.31335234501194 382.72611581712806Q274.01737359398953 382.4953973045565 269.50188270508886 382.2646787919849Q264.9863918161882 382.03396027941335 259.5150670894909 382.03396027941335L259.5150670894909 382.03396027941335L243.39773099699138 382.2646787919849Q239.11295862066225 382.4953973045565 231.30148898073915 382.4953973045565L231.30148898073915 382.4953973045565Q230.8070921680858 382.4953973045565 230.8070921680858 381.07812644161686Q230.8070921680858 379.66085557867723 231.30148898073915 379.66085557867723L231.30148898073915 379.66085557867723Q240.29951097103032 379.66085557867723 244.58428334735947 378.3424640782683Q248.83609593617834 377.02407257785933 250.5170450991998 373.7280938268369Q252.165034474711 370.3991552883043 252.165034474711 363.27984118609584L252.165034474711 363.27984118609584L252.165034474711 253.3919096270088Q252.165034474711 246.2725955248004 250.6159244617305 242.94365698626777Q249.09977423626017 239.64767823524534 244.81500185993104 238.3292867348364Q240.5302294836019 237.01089523442744 231.7629260058823 237.01089523442744L231.7629260058823 237.01089523442744Q231.03781068065734 237.01089523442744 231.03781068065734 235.5936243714878Q231.03781068065734 234.17635350854817 231.7629260058823 234.17635350854817L231.7629260058823 234.17635350854817L243.39773099699138 234.40707202111975Q253.35158682507907 234.9014688337731 259.5150670894909 234.9014688337731L259.5150670894909 234.9014688337731Q263.7998394658201 234.9014688337731 267.49133566696514 234.63779053369132Q271.14987208060006 234.40707202111975 273.75369529390775 234.17635350854817L273.75369529390775 234.17635350854817Q281.136687696198 233.45123818332326 287.53088647318145 233.45123818332326L287.53088647318145 233.45123818332326Q307.471557916867 233.45123818332326 317.42541374495465 242.11966229851217Q327.4122293605526 250.7880864137011 327.4122293605526 264.79599610554635L327.4122293605526 264.79599610554635Q327.4122293605526 276.16712279657366 320.02923695826235 285.0662654243341Q312.6792043434824 293.96540805209463 299.8578470020052 298.9752957536487L299.8578470020052 298.9752957536487ZM282.32324004656607 237.01089523442744Q276.1267999946439 237.01089523442744 273.1604191187238 237.96672907222393Q270.1940382428036 238.92256291002042 268.77676737986394 242.48221996112466Q267.3594965169243 246.04187701222884 267.3594965169243 253.88630643966215L267.3594965169243 253.88630643966215L267.3594965169243 298.9752957536487L278.03846767023686 299.2060142662203Q295.37531590061474 299.2060142662203 303.6811823531913 290.30687163845977Q311.9870488057677 281.40772901069926 311.9870488057677 266.6747039936291L311.9870488057677 266.6747039936291Q311.9870488057677 253.3919096270088 304.7358955535184 245.21788232447324Q297.4847423012691 237.01089523442744 282.32324004656607 237.01089523442744L282.32324004656607 237.01089523442744ZM290.85982501171407 379.1664587660239Q308.16371345458174 379.1664587660239 316.6014190571991 370.26731613826337Q325.0391246598165 361.3681735105029 325.0391246598165 344.75644060534995L325.0391246598165 344.75644060534995Q325.0391246598165 326.72743683725736 314.45903286903444 315.5870286588016Q303.91190086576285 304.41366069283566 285.3885002850169 304.1829421802641L285.3885002850169 304.1829421802641Q277.8077491576653 303.9522236676926 267.3594965169243 304.64437920540723L267.3594965169243 304.64437920540723L267.3594965169243 363.27984118609584Q267.3594965169243 369.44332145050777 269.13932504247634 372.77225998904044Q270.9191535680285 376.10119852757305 276.02792063211325 377.61734875304336Q281.136687696198 379.1664587660239 290.85982501171407 379.1664587660239L290.85982501171407 379.1664587660239Z " fill="#000000" transform="matrix(1.0454797295365719,0,0,1.0454797295365719,0,-22.479512031472694)"/><path d="M676.9685200608525 377.92068575447144Q677.6759155361063 377.92068575447144 677.6759155361063 379.3033223651952Q677.6759155361063 380.685958975919 676.9685200608525 380.685958975919L676.9685200608525 380.685958975919L651.0521221947278 380.685958975919Q649.18717048724 380.685958975919 644.4604825389516 380.8145763350561Q639.7016402508792 380.9110393544089 631.1485858682622 368.9817792944433Q622.5633771458613 357.084673574262 614.6855638987142 347.11682824113717L614.6855638987142 347.11682824113717L579.2836357962287 302.4222959409966L571.6309029275716 309.84994843116385L571.6309029275716 361.93997888168735Q571.6309029275716 368.88531627509053 573.0135395382954 372.229367612655Q574.4283304888033 375.6055732900037 578.4797773016219 376.7631295222376Q582.5312241144404 377.92068575447144 591.3093588755471 377.92068575447144L591.3093588755471 377.92068575447144Q592.0167543508012 377.92068575447144 592.0167543508012 379.3033223651952Q592.0167543508012 380.685958975919 591.3093588755471 380.685958975919L591.3093588755471 380.685958975919Q584.3640214821439 380.685958975919 580.2161116499726 380.4608785974291L580.2161116499726 380.4608785974291L564.0103243986987 380.2357982189392L548.2546979044046 380.4608785974291Q544.074633732449 380.685958975919 536.679135582066 380.685958975919L536.679135582066 380.685958975919Q536.2289748250862 380.685958975919 536.2289748250862 379.3033223651952Q536.2289748250862 377.92068575447144 536.679135582066 377.92068575447144L536.679135582066 377.92068575447144Q545.489424682957 377.92068575447144 549.5408714957755 376.7631295222376Q553.592318308594 375.6055732900037 555.0714179386706 372.229367612655Q556.5826719085314 368.88531627509053 556.5826719085314 361.93997888168735L556.5826719085314 361.93997888168735L556.5826719085314 254.73741004091863Q556.5826719085314 247.7920726475155 555.2000352978077 244.54448432930386Q553.8173986870838 241.32905035087646 549.7659518742654 240.04287675950553Q545.714505061447 238.75670316813458 536.9042159605559 238.75670316813458L536.9042159605559 238.75670316813458Q536.4540552035761 238.75670316813458 536.4540552035761 237.3740665574108Q536.4540552035761 235.99142994668705 536.9042159605559 235.99142994668705L536.9042159605559 235.99142994668705L548.4797782828945 236.21651032517696Q558.2225432375294 236.69882542194105 564.0103243986987 236.69882542194105L564.0103243986987 236.69882542194105Q570.6984270738276 236.69882542194105 580.4411920284626 236.21651032517696L580.4411920284626 236.21651032517696L591.3093588755471 235.99142994668705Q592.0167543508012 235.99142994668705 592.0167543508012 237.3740665574108Q592.0167543508012 238.75670316813458 591.3093588755471 238.75670316813458L591.3093588755471 238.75670316813458Q582.7563044929302 238.75670316813458 578.7048576801118 240.1714941186426Q574.6534108672934 241.5541307293664 573.1421568974324 244.89818206693087Q571.6309029275716 248.2743877442796 571.6309029275716 255.21972513768273L571.6309029275716 255.21972513768273L571.6309029275716 304.0621672699946L621.1807405351374 254.73741004091863Q628.8334734037946 247.11683151204576 628.8334734037946 243.38692809706998L628.8334734037946 243.38692809706998Q628.8334734037946 238.75670316813458 615.1678789954783 238.75670316813458L615.1678789954783 238.75670316813458Q614.6855638987142 238.75670316813458 614.6855638987142 237.3740665574108Q614.6855638987142 235.99142994668705 615.1678789954783 235.99142994668705L615.1678789954783 235.99142994668705L625.1035699888189 236.21651032517696Q634.3640198466898 236.69882542194105 642.0167527153468 236.69882542194105L642.0167527153468 236.69882542194105Q649.6694855840041 236.69882542194105 657.9974595881309 236.21651032517696L657.9974595881309 236.21651032517696L666.5505139707476 235.99142994668705Q667.2579094460017 235.99142994668705 667.2579094460017 237.3740665574108Q667.2579094460017 238.75670316813458 666.5505139707476 238.75670316813458L666.5505139707476 238.75670316813458Q657.064983734387 238.75670316813458 646.4218972657924 242.93676734009017Q635.7788107971977 247.11683151204576 626.5183609393268 256.1200466516424L626.5183609393268 256.1200466516424L589.9267222648234 292.00428985089195L623.2707726211152 334.6087900650547Q640.151801007859 356.60235847749794 649.090707467887 365.63772795687885Q657.9974595881309 374.6730974362598 662.8527648955563 376.28081442547347Q667.7080702029815 377.92068575447144 676.9685200608525 377.92068575447144L676.9685200608525 377.92068575447144ZM755.6823438527546 383.4512321973665Q734.1710905370754 383.4512321973665 717.3865251696844 373.3869238448888Q700.6019598022937 363.32261549241116 691.4379729637757 346.0878893680404Q682.306140465042 328.8210089038854 682.306140465042 308.4673118204401L682.306140465042 308.4673118204401Q682.306140465042 284.60879170050896 694.3318635443603 267.59914595462817Q706.3897409634629 250.58950020874732 725.2321840770472 242.00429148634623Q744.106781530416 233.4512371037294 763.7852374783917 233.4512371037294L763.7852374783917 233.4512371037294Q785.7788058908349 233.4512371037294 802.4669082388729 243.740625834697Q819.1228562471268 254.06216890544889 828.0296083673705 270.9431972921926Q836.9363604876145 287.85638001872064 836.9363604876145 306.82744049144213L836.9363604876145 306.82744049144213Q836.9363604876145 327.88853305014146 825.84311326204 345.5091112519235Q814.7177116966812 363.09753511392125 796.1003489615867 373.290460825536Q777.450831886708 383.4512321973665 755.6823438527546 383.4512321973665L755.6823438527546 383.4512321973665ZM763.7852374783917 378.5959268899412Q779.5408639726858 378.5959268899412 792.145365168121 370.9753483610683Q804.7820207033407 363.32261549241116 812.0489014945864 348.4994648518609Q819.3479366256166 333.67631421131074 819.3479366256166 313.32261712786544L819.3479366256166 313.32261712786544Q819.3479366256166 291.5541290939121 811.2450429999798 274.6409463673841Q803.1421493743427 257.75991798064035 788.4476160929295 248.2743877442796Q773.7530828115165 238.75670316813458 754.0746268635409 238.75670316813458L754.0746268635409 238.75670316813458Q728.6083897543962 238.75670316813458 714.2353998708257 255.21972513768273Q699.8945643270396 271.65059276744665 699.8945643270396 300.3644181948031L699.8945643270396 300.3644181948031Q699.8945643270396 322.1007518889722 707.9974579526767 340.0428734885969Q716.1003515783135 357.9849950882217 730.698421840374 368.3065381589736Q745.2643377626499 378.5959268899412 763.7852374783917 378.5959268899412L763.7852374783917 378.5959268899412Z " fill="#214da5" transform="matrix(1.0454797295365719,0,0,1.0454797295365719,0,-22.479512031472694)"/></g></svg>